<svg height="679.205" version="1.2" viewBox="0 0 1698.165 1797.063" width="641.826" xmlns="http://www.w3.org/2000/svg"><g fill="none" fill-rule="evenodd" stroke="#000" stroke-linecap="square" stroke-linejoin="bevel" font-family="'Sans Serif'" font-size="31.75" font-weight="400"><path d="M1693.626 782.979c-59.152-363.518-373.132-630.536-741.431-630.536-368.3 0-682.28 267.018-741.431 630.536a79.999 79.999 0 0 0 90.302 92.04l526.044-75.333 14.885 103.94 14.885 103.94-534.915 76.603a80.003 80.003 0 0 0-62.426 110.15c117.082 278.98 390.104 460.49 692.656 460.49 302.552 0 575.574-181.51 692.656-460.49a80 80 0 0 0-62.426-110.15l-534.915-76.603 14.885-103.94 14.885-103.94 526.044 75.334a80 80 0 0 0 90.302-92.041" vector-effect="non-scaling-stroke" fill="none" fill-opacity="0" stroke="none"/><path d="M1002.195 903.626c0 27.614-22.386 50-50 50s-50-22.386-50-50 22.386-50 50-50 50 22.386 50 50M904.945 1168.626c0 13.807-11.193 25-25 25s-25-11.193-25-25 11.193-25 25-25 25 11.193 25 25M1049.445 1168.626c0 13.807-11.193 25-25 25s-25-11.193-25-25 11.193-25 25-25 25 11.193 25 25M1125.345 638.626c0 13.807-11.193 25-25 25s-25-11.193-25-25 11.193-25 25-25 25 11.193 25 25M829.045 638.626c0 13.807-11.193 25-25 25s-25-11.193-25-25 11.193-25 25-25 25 11.193 25 25" vector-effect="non-scaling-stroke" fill="none" fill-opacity="0" stroke="none"/><path d="M1693.626 782.979c-59.152-363.518-373.132-630.536-741.431-630.536-368.3 0-682.28 267.018-741.431 630.536M301.066 875.02a80 80 0 0 1-90.302-92.041M259.539 1194.32a80 80 0 0 1 62.426-110.151M321.965 1084.169l534.915-76.603M856.88 1007.566l-14.885-103.94M841.995 903.626l-14.885-103.94M301.066 875.02l526.044-75.334M1693.626 782.979a79.999 79.999 0 0 1-90.302 92.04M1603.324 875.02l-526.044-75.334M1062.395 903.626l14.885-103.94M1047.51 1007.566l14.885-103.94M1582.425 1084.169l-534.915-76.603M1582.425 1084.169a80.003 80.003 0 0 1 62.426 110.15" stroke="#212529" stroke-linecap="round" stroke-width="7"/><path d="M259.539 1194.32c117.082 278.98 390.104 460.489 692.656 460.489 302.552 0 575.574-181.51 692.656-460.49M904.945 1168.626c0 13.807-11.193 25-25 25s-25-11.193-25-25 11.193-25 25-25 25 11.193 25 25M1049.445 1168.626c0 13.807-11.193 25-25 25s-25-11.193-25-25 11.193-25 25-25 25 11.193 25 25M829.045 638.626c0 13.807-11.193 25-25 25s-25-11.193-25-25 11.193-25 25-25 25 11.193 25 25M1002.195 903.626c0 27.614-22.386 50-50 50s-50-22.386-50-50 22.386-50 50-50 50 22.386 50 50M1125.345 638.626c0 13.807-11.193 25-25 25s-25-11.193-25-25 11.193-25 25-25 25 11.193 25 25" stroke="#212529" stroke-linecap="round" stroke-width="7"/><text fill="#212529" font-family="osifont" font-size="67" stroke="none" x="4" xml:space="preserve" y="92.234" transform="rotate(-90 442.402 485.794)">A</text><path d="M66.357 638.626v530m788.588 0H38.357m740.688-530H38.357" stroke="#212529" stroke-linecap="round" stroke-width="3.5"/><path d="m66.359 1168.626 5.833-35H60.526l5.833 35M66.359 638.623l-5.833 35h11.666l-5.833-35" fill="#212529" stroke="#212529" stroke-linecap="round" stroke-width="3.5"/><text fill="#212529" font-family="osifont" font-size="67" stroke="none" x="4" xml:space="preserve" y="92.234" transform="translate(928.705 -43.391)">B</text><path d="M1100.345 66.112h-296.3m0 572.514V38.112m296.3 600.514V38.112" stroke="#212529" stroke-linecap="round" stroke-width="3.5"/><path d="m804.045 66.109 35 5.833V60.276l-35 5.833M1100.345 66.109l-35-5.833v11.666l35-5.833" fill="#212529" stroke="#212529" stroke-linecap="round" stroke-width="3.5"/><text fill="#212529" font-family="osifont" font-size="67" stroke="none" x="4" xml:space="preserve" y="92.234" transform="translate(931.775 1657.806)">C</text><path d="M879.945 1767.313h144.5m0-598.687v626.687m-144.5-626.687v626.687" stroke="#212529" stroke-linecap="round" stroke-width="3.5"/><path d="m1024.445 1767.306-35-5.833v11.666l35-5.833M879.945 1767.306l35 5.833v-11.666l-35 5.833" fill="#212529" stroke="#212529" stroke-linecap="round" stroke-width="3.5"/></g></svg>