<svg height="571.302" version="1.2" viewBox="0 0 1354.073 1511.569" width="511.776" xmlns="http://www.w3.org/2000/svg"><g fill="none" fill-rule="evenodd" stroke="#000" stroke-linecap="square" stroke-linejoin="bevel" font-family="sans-serif" font-size="31.75" font-weight="400"><path d="M1345.534 550.273c-88.915-238.497-316.654-396.645-571.187-396.645-254.533 0-482.272 158.148-571.187 396.645a80 80 0 0 0 74.96 107.946h371.227v210H278.12a80 80 0 0 0-74.96 107.946c88.915 238.497 316.654 396.645 571.187 396.645 254.533 0 482.272-158.148 571.187-396.645a80 80 0 0 0-74.96-107.946H899.347v-210h371.227a80 80 0 0 0 74.96-107.946" vector-effect="non-scaling-stroke" fill="none" fill-opacity="0" stroke="none"/><path d="M824.347 763.219c0 27.614-22.386 50-50 50s-50-22.386-50-50 22.386-50 50-50 50 22.386 50 50M674.347 968.219c0 13.807-11.193 25-25 25s-25-11.193-25-25 11.193-25 25-25 25 11.193 25 25M924.347 558.219c0 13.807-11.193 25-25 25s-25-11.193-25-25 11.193-25 25-25 25 11.193 25 25M924.347 968.219c0 13.807-11.193 25-25 25s-25-11.193-25-25 11.193-25 25-25 25 11.193 25 25M674.347 558.219c0 13.807-11.193 25-25 25s-25-11.193-25-25 11.193-25 25-25 25 11.193 25 25" vector-effect="non-scaling-stroke" fill="none" fill-opacity="0" stroke="none"/><path d="M1345.534 550.273c-88.915-238.497-316.654-396.645-571.187-396.645-254.533 0-482.272 158.148-571.187 396.645M278.12 658.219a80 80 0 0 1-74.96-107.946M203.16 976.165a80 80 0 0 1 74.96-107.946M278.12 868.219h371.227M649.347 868.219v-105M649.347 763.219v-105M278.12 658.219h371.227M1345.534 550.273a80 80 0 0 1-74.96 107.946M1270.574 658.219H899.347M899.347 763.219v-105M899.347 868.219v-105M1270.574 868.219H899.347M1270.574 868.219a80 80 0 0 1 74.96 107.946" stroke="#212529" stroke-linecap="round" stroke-width="7"/><path d="M203.16 976.165c88.915 238.497 316.654 396.645 571.187 396.645 254.533 0 482.272-158.148 571.187-396.645" stroke="#212529" stroke-linecap="round" stroke-width="7"/><path d="M674.347 968.219c0 13.807-11.193 25-25 25s-25-11.193-25-25 11.193-25 25-25 25 11.193 25 25M924.347 968.219c0 13.807-11.193 25-25 25s-25-11.193-25-25 11.193-25 25-25 25 11.193 25 25M674.347 558.219c0 13.807-11.193 25-25 25s-25-11.193-25-25 11.193-25 25-25 25 11.193 25 25M824.347 763.219c0 27.614-22.386 50-50 50s-50-22.386-50-50 22.386-50 50-50 50 22.386 50 50M924.347 558.219c0 13.807-11.193 25-25 25s-25-11.193-25-25 11.193-25 25-25 25 11.193 25 25" stroke="#212529" stroke-linecap="round" stroke-width="7"/><text fill="#212529" font-family="sans-serif" font-size="67" stroke="none" x="4" xml:space="preserve" y="92.234" transform="rotate(-90 372.199 415.59)">A</text><path d="M66.358 558.219v410m557.989 0H38.357m585.99-410H38.357" stroke="#212529" stroke-linecap="round" stroke-width="3.5"/><path d="m66.359 968.219 5.833-35H60.526l5.833 35M66.359 558.216l-5.833 35h11.666l-5.833-35" fill="#212529" stroke="#212529" stroke-linecap="round" stroke-width="3.5"/><text fill="#212529" font-family="sans-serif" font-size="67" stroke="none" x="4" xml:space="preserve" y="92.234" transform="translate(750.857 -43.391)">B</text><path d="M899.347 66.112h-250m0 492.107V38.112m250 520.107V38.112" stroke="#212529" stroke-linecap="round" stroke-width="3.5"/><path d="m649.347 66.109 35 5.833V60.276l-35 5.833M899.347 66.109l-35-5.833v11.666l35-5.833" fill="#212529" stroke="#212529" stroke-linecap="round" stroke-width="3.5"/><text fill="#212529" font-family="sans-serif" font-size="67" stroke="none" x="4" xml:space="preserve" y="92.234" transform="translate(753.927 1372.319)">C</text><path d="M649.347 1481.819h250m0-513.6v541.6m-250-541.6v541.6" stroke="#212529" stroke-linecap="round" stroke-width="3.5"/><path d="m899.347 1481.819-35-5.833v11.666l35-5.833M649.347 1481.819l35 5.833v-11.666l-35 5.833" fill="#212529" stroke="#212529" stroke-linecap="round" stroke-width="3.5"/></g></svg>
