<svg height="690.173" version="1.2" viewBox="0 0 1340.27 1826.083" width="506.559" xmlns="http://www.w3.org/2000/svg"><g fill="none" fill-rule="evenodd" stroke="#000" stroke-linecap="square" stroke-linejoin="bevel" font-family="sans-serif" font-size="31.75" font-weight="400"><path d="m320.322 248.535-19.309 276.132m-.388 5.547-1.709 24.453m-21.24 303.75-29.144 416.764M140.762 235.979l-71.79 1026.646m0 0 179.56 12.556M56.415 1442.186l12.556-179.561m179.561 12.556-1.255 17.956m0 0-161.606-11.301m0 0-11.3 161.606m0 0-17.956-1.256m84.346-1206.207 179.561 12.556M153.317 56.417l-12.556 179.562m179.561 12.556 1.256-17.956m0 0-161.605-11.301m0 0 11.3-161.605m0 0-17.956-1.256m718.13 802h21.212m-21.213 0H258.172m0 0v-303.75m613.274 0v303.75m21.213-303.75v303.75m114.51-333.75v30m-706.544-30v30m706.543-30H300.625m918.376 0v30m-211.833-30h211.833m-211.833 30h211.833m-66.859 1215h-266.7m-627.27-1215h42.453m0 0h570.821m135.722 0H871.446m13.996 303.75v911.25m266.7-1215v1215" stroke="#212529" stroke-linecap="round" stroke-width="7"/><text fill="#212529" font-size="67" stroke="none" x="4" xml:space="preserve" y="92.234" transform="rotate(-86 391.537 21.89)">S</text><path d="m443.512 534.63 19.31-276.13m-142.5-9.965 170.431 11.918m-189.74 264.214 170.431 11.917" stroke="#212529" stroke-linecap="round" stroke-width="3.5"/><path d="m462.818 258.502-8.26 34.508 11.638.814-3.378-35.322m-19.31 276.13 8.26-34.507-11.638-.814 3.378 35.322" fill="#212529" stroke="#212529" stroke-linecap="round" stroke-width="3.5"/><text fill="#212529" font-size="67" stroke="none" x="4" xml:space="preserve" y="92.234" transform="translate(541.958 885.932)">P</text><path d="M871.446 995.429H258.172m0-137.012v165.012m613.274-165.012v165.012" stroke="#212529" stroke-linecap="round" stroke-width="3.5"/><path d="m258.168 995.432 35 5.833v-11.666l-35 5.833m613.27 0-35-5.833v11.666l35-5.833" fill="#212529" stroke="#212529" stroke-linecap="round" stroke-width="3.5"/><text fill="#212529" font-size="67" stroke="none" x="4" xml:space="preserve" y="92.234" transform="rotate(-90 416.958 313.57)">Q</text><path d="M212.893 858.417v-303.75m45.28 0h-73.28m73.28 303.75h-73.28" stroke="#212529" stroke-linecap="round" stroke-width="3.5"/><path d="m212.888 554.669-5.833 35h11.666l-5.833-35m0 303.753 5.833-35h-11.666l5.833 35" fill="#212529" stroke="#212529" stroke-linecap="round" stroke-width="3.5"/><text fill="#212529" font-size="67" stroke="none" x="4" xml:space="preserve" y="92.234" transform="translate(982.838 589.733)">R</text><path d="M1028.431 699.23H801.446m70-144.563V727.23m21.213-172.564V727.23" stroke="#212529" stroke-linecap="round" stroke-width="3.5"/><path d="m871.438 699.233-35-5.833v11.666l35-5.833m21.22 0 35 5.833V693.4l-35 5.833" fill="#212529" stroke="#212529" stroke-linecap="round" stroke-width="3.5"/><text fill="#212529" font-size="69" stroke="none" x="4" xml:space="preserve" y="68.047" transform="rotate(-90 1181.96 11.362)">O</text><path d="M1257.604 554.667v1215m-105.462 0h133.462m-133.462-1215h133.462" stroke="#212529" stroke-linecap="round" stroke-width="3.5"/><path d="m1257.598 1769.672 5.833-35h-11.666l5.833 35m0-1215.003-5.833 35h11.666l-5.833-35" fill="#212529" stroke="#212529" stroke-linecap="round" stroke-width="3.5"/><text fill="#212529" font-size="67" stroke="none" x="4" xml:space="preserve" y="92.234" transform="rotate(-90 706.495 -291.013)">N</text><path d="M1107.008 624.667V368.745m-99.84 155.922h127.84m-127.84 30h127.84" stroke="#212529" stroke-linecap="round" stroke-width="3.5"/><path d="m1107.008 524.669 5.833-35h-11.666l5.833 35m0 30-5.833 35h11.666l-5.833-35" fill="#212529" stroke="#212529" stroke-linecap="round" stroke-width="3.5"/><text fill="#212529" font-size="67" stroke="none" x="4" xml:space="preserve" y="92.234" transform="translate(56.44 1558.262)">SIDE VIEW OF FRAME</text></g></svg>