<svg height="222.076" version="1.2" viewBox="0 0 521.19 587.576" width="196.985" xmlns="http://www.w3.org/2000/svg"><g fill="none" fill-rule="evenodd" stroke="#000" stroke-linecap="square" stroke-linejoin="bevel" font-family="Sans" font-size="31.75" font-weight="400"><path d="M517.69 41.741v50.364c-67.831 44.677-108.661 120.46-108.661 201.683s40.83 157.006 108.661 201.683v50.364L3.5 584.076v-29.181c93.284-53.858 150.75-153.391 150.75-261.107 0-107.716-57.466-207.249-150.75-261.107V3.5l514.19 38.241" vector-effect="non-scaling-stroke" fill="none" fill-opacity="0" stroke="none"/><path d="M517.69 41.741v50.364M517.69 92.105c-67.831 44.677-108.661 120.46-108.661 201.683s40.83 157.006 108.661 201.683M517.69 495.471v50.364M3.5 584.076l514.19-38.241M3.5 554.895v29.181M3.5 554.895c93.284-53.858 150.75-153.391 150.75-261.107 0-107.716-57.466-207.249-150.75-261.107M3.5 3.5v29.181M517.69 41.741 3.5 3.5" stroke="#212529" stroke-linecap="round" stroke-width="7"/><text fill="#212529" font-family="osifont" font-size="67" stroke="none" x="4" xml:space="preserve" y="92.234" transform="translate(257.935 185.293)">D</text><path d="M409.029 294.793H154.25m0-28v56m254.779-56v56" stroke="#212529" stroke-linecap="round" stroke-width="3.5"/><path d="m154.245 294.798 35 5.833v-11.666l-35 5.833M409.025 294.798l-35-5.833v11.666l35-5.833" fill="#212529" stroke="#212529" stroke-linecap="round" stroke-width="3.5"/></g></svg>
