<svg height="577.494" version="1.2" viewBox="0 0 1587.774 1527.954" width="600.104" xmlns="http://www.w3.org/2000/svg"><g fill="none" fill-rule="evenodd" stroke="#000" stroke-linecap="square" stroke-linejoin="bevel" font-family="Sans" font-size="31.75" font-weight="400"><path d="m969.234 979.848 90.72-189.394 404.388 193.705a80.003 80.003 0 0 0 113.86-61.586 693.463 693.463 0 0 0 6.072-91.572c0-258.717-144.021-495.92-373.568-615.265-229.546-119.344-506.44-100.982-718.216 47.63-211.776 148.61-323.214 402.756-289.05 659.207a80 80 0 0 0 113.86 61.586l404.387-193.705 90.72 189.394-407.03 194.97a80 80 0 0 0-24.24 126.396c131.282 142.3 316.075 223.24 509.684 223.24 193.609 0 378.402-80.94 509.684-223.24a80 80 0 0 0-24.24-126.396l-407.031-194.97" vector-effect="non-scaling-stroke" fill="none" fill-opacity="0" stroke="none"/><path d="M940.82 831c0 27.615-22.385 50-50 50-27.613 0-50-22.385-50-50 0-27.613 22.387-50 50-50 27.615 0 50 22.387 50 50M930.82 1097.25c0 22.092-17.908 40-40 40-22.09 0-40-17.908-40-40 0-22.09 17.91-40 40-40 22.092 0 40 17.91 40 40M690.82 662.25c0 13.808-11.192 25-25 25-13.806 0-25-11.192-25-25 0-13.806 11.194-25 25-25 13.808 0 25 11.194 25 25M1140.82 662.25c0 13.808-11.192 25-25 25-13.806 0-25-11.192-25-25 0-13.806 11.194-25 25-25 13.808 0 25 11.194 25 25" vector-effect="non-scaling-stroke" fill="none" fill-opacity="0" stroke="none"/><path d="M1584.274 831c0-258.716-144.021-495.92-373.568-615.264-229.546-119.344-506.44-100.982-718.216 47.63-211.776 148.61-323.214 402.756-289.05 659.207M317.3 984.159a80.003 80.003 0 0 1-113.86-61.586M1464.342 984.159a80.003 80.003 0 0 0 113.86-61.586M1059.955 790.454l404.387 193.705M969.234 979.848l90.72-189.394M969.234 979.848l407.03 194.97M1400.505 1301.214a80 80 0 0 0-24.24-126.396M381.137 1301.214c131.282 142.3 316.075 223.24 509.684 223.24 193.609 0 378.402-80.94 509.684-223.24M381.137 1301.214a80 80 0 0 1 24.24-126.396M812.408 979.848l-407.031 194.97M812.408 979.848l-90.721-189.394M721.687 790.454 317.3 984.16M1578.202 922.573a693.463 693.463 0 0 0 6.072-91.572M930.82 1097.25c0 22.092-17.908 40-40 40-22.09 0-40-17.908-40-40 0-22.09 17.91-40 40-40 22.092 0 40 17.91 40 40" stroke="#212529" stroke-linecap="round" stroke-width="7"/><path d="M690.82 662.25c0 13.808-11.192 25-25 25-13.806 0-25-11.192-25-25 0-13.806 11.194-25 25-25 13.808 0 25 11.194 25 25M940.82 831c0 27.615-22.385 50-50 50-27.613 0-50-22.385-50-50 0-27.613 22.387-50 50-50 27.615 0 50 22.387 50 50M1140.82 662.25c0 13.808-11.192 25-25 25-13.806 0-25-11.192-25-25 0-13.806 11.194-25 25-25 13.808 0 25 11.194 25 25" stroke="#212529" stroke-linecap="round" stroke-width="7"/><text fill="#212529" font-family="osifont" font-size="67" stroke="none" x="4" xml:space="preserve" y="92.234" transform="rotate(-90 430.465 473.856)">A</text><path d="M66.359 662.25v435m784.462 0H38.359m602.462-435H38.359" stroke="#212529" stroke-linecap="round" stroke-width="3.5"/><path d="m66.359 1097.25 5.833-35H60.526l5.833 35M66.359 662.25l-5.833 35h11.666l-5.833-35" fill="#212529" stroke="#212529" stroke-linecap="round" stroke-width="3.5"/><text fill="#212529" font-family="osifont" font-size="67" stroke="none" x="4" xml:space="preserve" y="92.234" transform="translate(867.33 -43.391)">B</text><path d="M665.82 66.109h450m0 596.142V38.109m-450 624.142V38.109" stroke="#212529" stroke-linecap="round" stroke-width="3.5"/><path d="m1115.82 66.109-35-5.833v11.666l35-5.833M665.82 66.109l35 5.833V60.276l-35 5.833" fill="#212529" stroke="#212529" stroke-linecap="round" stroke-width="3.5"/><text fill="#212529" font-family="osifont" font-size="67" stroke="none" x="4" xml:space="preserve" y="92.234" transform="rotate(.256 -220768.742 216244.403)">C</text><path d="m780.822 1096.76 222.808.995" stroke="#212529" stroke-linecap="round" stroke-width="3.5"/><path d="m930.82 1097.43 34.974 5.99.053-11.666-35.026 5.677M850.82 1097.07l-34.973-5.989-.052 11.667 35.026-5.677" fill="#212529" stroke="#212529" stroke-linecap="round" stroke-width="3.5"/></g></svg>
